<?xml version="1.0" encoding="UTF-8"?>
<svg version="1.1" xmlns="http://www.w3.org/2000/svg" width="141" height="93">
<path d="M0 0 C46.53 0 93.06 0 141 0 C141 30.69 141 61.38 141 93 C94.47 93 47.94 93 0 93 C0 62.31 0 31.62 0 0 Z " fill="#FBFBFD" transform="translate(0,0)"/>
<path d="M0 0 C0.33 -0.33 0.66 -0.66 1 -1 C2.85287502 -1.07226502 4.70833878 -1.0838122 6.5625 -1.0625 C7.57441406 -1.05347656 8.58632812 -1.04445313 9.62890625 -1.03515625 C10.41136719 -1.02355469 11.19382812 -1.01195312 12 -1 C12 -0.34 12 0.32 12 1 C13.010625 0.87625 14.02125 0.7525 15.0625 0.625 C20.1997742 1.11426421 22.75120895 3.07015927 26 7 C26.9375 9.875 26.9375 9.875 27 12 C27.86625 12.1546875 27.86625 12.1546875 28.75 12.3125 C31.37757361 13.11536971 32.95923541 14.17034898 35 16 C36.1066598 19.31997939 36.20240272 21.94306627 36.25 25.4375 C36.27578125 26.57058594 36.3015625 27.70367187 36.328125 28.87109375 C35.96648782 32.31956261 35.51138466 33.64316209 33 36 C30.73828125 36.828125 30.73828125 36.828125 28.3125 37.25 C27.50425781 37.39953125 26.69601563 37.5490625 25.86328125 37.703125 C24.94095703 37.85007812 24.94095703 37.85007812 24 38 C26.31 38.33 28.62 38.66 31 39 C30.98839844 40.21558594 30.97679688 41.43117187 30.96484375 42.68359375 C30.95546722 44.26822764 30.94636687 45.85286318 30.9375 47.4375 C30.92493164 48.64116211 30.92493164 48.64116211 30.91210938 49.86914062 C30.9034857 51.91295221 30.9477185 53.95683902 31 56 C31.33 56.33 31.66 56.66 32 57 C32.07179964 58.51928038 32.08392007 60.04167482 32.0625 61.5625 C32.05347656 62.38878906 32.04445313 63.21507813 32.03515625 64.06640625 C32.02355469 64.70449219 32.01195313 65.34257813 32 66 C29.11076825 67.44461588 26.47837696 67.19720082 23.25 67.3125 C16.25395992 67.67436414 9.40371196 68.5713033 2.5 69.75 C1.5812207 69.89477783 0.66244141 70.03955566 -0.28417969 70.1887207 C-5.80338867 71.18203778 -9.83946921 72.72804391 -14.42382812 75.98535156 C-16 77 -16 77 -18 77 C-18.125 69.375 -18.125 69.375 -17 66 C-17.66 66 -18.32 66 -19 66 C-19.66 64.35 -20.32 62.7 -21 61 C-17.47552448 57.22377622 -17.47552448 57.22377622 -14.875 56 C-12.50808239 54.73764394 -11.9777758 53.44443949 -11 51 C-14.7763932 50.7018576 -14.7763932 50.7018576 -17 52 C-18.12224855 53.88013106 -18.12224855 53.88013106 -19.125 56.0625 C-19.47820313 56.79597656 -19.83140625 57.52945313 -20.1953125 58.28515625 C-20.46085937 58.85105469 -20.72640625 59.41695312 -21 60 C-25.14505521 59.95558186 -29.28867793 59.88547892 -33.43286133 59.79248047 C-34.83996704 59.76441256 -36.24722627 59.74312797 -37.65454102 59.72900391 C-52.3321625 59.57291435 -52.3321625 59.57291435 -58 55 C-61.57041989 51.28285053 -64.33304463 47.05762915 -64.625 41.8125 C-63.77772391 36.64411583 -61.65062669 33.65062669 -58 30 C-57.01 30.33 -56.02 30.66 -55 31 C-55.16757812 31.556875 -55.33515625 32.11375 -55.5078125 32.6875 C-57.07330885 38.55315721 -56.88690123 42.23446848 -55 48 C-53.68 48 -52.36 48 -51 48 C-50.34 47.01 -49.68 46.02 -49 45 C-46.72265625 44.63671875 -46.72265625 44.63671875 -44.0625 44.6875 C-43.18722656 44.69136719 -42.31195313 44.69523437 -41.41015625 44.69921875 C-39 45 -39 45 -36 47 C-33.86196946 46.92393164 -33.86196946 46.92393164 -32 46 C-31.67 45.01 -31.34 44.02 -31 43 C-30.01 42.690625 -29.02 42.38125 -28 42.0625 C-26.515 41.5365625 -26.515 41.5365625 -25 41 C-24.39938767 39.09821215 -24.39938767 39.09821215 -24 37 C-21.00767663 33.83165761 -19.59156307 33.03879102 -15.1875 32.75 C-14.135625 32.8325 -13.08375 32.915 -12 33 C-12.33 31.35 -12.66 29.7 -13 28 C-14.98491642 28.26676204 -14.98491642 28.26676204 -17 29 C-17.33 29.99 -17.66 30.98 -18 32 C-18.78375 32.28875 -19.5675 32.5775 -20.375 32.875 C-23.70369673 34.30158431 -24.26054147 35.89922611 -26 39 C-32.03410573 44.81860195 -39.94871326 44.23163039 -47.79296875 44.265625 C-50.81940156 44.01495821 -52.52267178 43.70686729 -55 42 C-55.9375 39.75 -55.9375 39.75 -56 37 C-54.5625 33.6875 -54.5625 33.6875 -53 31 C-52.01 31 -51.02 31 -50 31 C-50 29.68 -50 28.36 -50 27 C-49.01 26.67 -48.02 26.34 -47 26 C-46.690625 25.34 -46.38125 24.68 -46.0625 24 C-45 22 -45 22 -42.875 21.25 C-41.946875 21.12625 -41.946875 21.12625 -41 21 C-44.48605314 21 -47.5881679 21.25560027 -51 22 C-52.16666667 23.91666667 -52.16666667 23.91666667 -53 26 C-55.625 27.25 -55.625 27.25 -58 28 C-58.4375 24.875 -58.4375 24.875 -58 21 C-55.97871868 18.55430265 -53.6977203 16.66623901 -51 15 C-50.34 15 -49.68 15 -49 15 C-48.773125 14.401875 -48.54625 13.80375 -48.3125 13.1875 C-46.60689234 10.34482057 -44.99031944 9.39084625 -42 8 C-39.1875 7.8125 -39.1875 7.8125 -37 8 C-37 9.32 -37 10.64 -37 12 C-36.21625 11.95875 -35.4325 11.9175 -34.625 11.875 C-32 12 -32 12 -30 14 C-27.56747339 14.46162427 -27.56747339 14.46162427 -24.875 14.625 C-23.96492188 14.69976563 -23.05484375 14.77453125 -22.1171875 14.8515625 C-21.41851562 14.90054687 -20.71984375 14.94953125 -20 15 C-20.83328947 19.65253288 -23.18307671 21.28411227 -27 24 C-29.875 24.8125 -29.875 24.8125 -32 25 C-32.103125 25.61875 -32.20625 26.2375 -32.3125 26.875 C-33 29 -33 29 -36 31 C-37.65549531 31.38499891 -39.3222433 31.72793135 -41 32 C-41 33.32 -41 34.64 -41 36 C-40.01 36 -39.02 36 -38 36 C-36.96210419 34.35666496 -35.96432076 32.68756133 -35 31 C-31.77208445 28.8480563 -30.71599191 28.79913557 -27 29 C-26.95875 28.278125 -26.9175 27.55625 -26.875 26.8125 C-25.6803561 22.97257318 -23.3085053 21.07261353 -20 19 C-18.0040278 18.32136945 -16.00431449 17.65358081 -14 17 C-12.64499081 15.68870078 -11.31328657 14.35308313 -10 13 C-7.78807822 11.26603117 -5.67384184 9.89685112 -3 9 C0.8125 9.5625 0.8125 9.5625 4 11 C6.18891794 14.28337691 6.45290607 15.19558901 6 19 C4.875 21.8125 4.875 21.8125 3 24 C-2.87526444 25.43299133 -8.00518075 21.7639316 -13 19 C-13 19.66 -13 20.32 -13 21 C-12.37351563 21.20496094 -11.74703125 21.40992187 -11.1015625 21.62109375 C-10.28429687 21.89050781 -9.46703125 22.15992187 -8.625 22.4375 C-7.81289062 22.70433594 -7.00078125 22.97117187 -6.1640625 23.24609375 C-2.22298418 24.61906869 -2.22298418 24.61906869 -0.5 27.5625 C0.07826421 31.53806642 -0.32104648 32.10279289 -2.5625 35.25 C-5.06156487 38.26036779 -7.08782141 40.07948739 -11 41 C-11 41.99 -11 42.98 -11 44 C-8.525 43.505 -8.525 43.505 -6 43 C-5.896875 42.401875 -5.79375 41.80375 -5.6875 41.1875 C-4.88730103 38.64141235 -3.86718082 37.86718082 -2 36 C-1.525625 34.96875 -1.05125 33.9375 -0.5625 32.875 C1 30 1 30 3.1875 29.125 C3.785625 29.08375 4.38375 29.0425 5 29 C4.95875 27.906875 4.9175 26.81375 4.875 25.6875 C5 22 5 22 7 19 C6.76787034 13.95998592 6.76787034 13.95998592 4 10 C3.375 7.375 3.375 7.375 3 5 C1.35 4.67 -0.3 4.34 -2 4 C-2 5.32 -2 6.64 -2 8 C-3.90881434 9.03544174 -5.82739204 10.05290085 -7.75 11.0625 C-8.81734375 11.63097656 -9.8846875 12.19945312 -10.984375 12.78515625 C-14.09693919 14.03905193 -14.97092665 14.1252866 -18 13 C-18.495 13.495 -18.495 13.495 -19 14 C-23.44512297 14.2564494 -27.09745822 14.29561281 -31 12 C-31.6875 9.9375 -31.6875 9.9375 -32 8 C-32.66 7.67 -33.32 7.34 -34 7 C-32.63016497 3.83884224 -32.0109362 3.0072908 -29 1 C-18.60666234 -2.94428604 -10.14216408 -5.1789774 0 0 Z " fill="#676EDE" transform="translate(82,13)"/>
<path d="M0 0 C0 1.32 0 2.64 0 4 C0.78375 3.95875 1.5675 3.9175 2.375 3.875 C5 4 5 4 7 6 C9.43252661 6.46162427 9.43252661 6.46162427 12.125 6.625 C13.49011719 6.73714844 13.49011719 6.73714844 14.8828125 6.8515625 C15.58148438 6.90054687 16.28015625 6.94953125 17 7 C16.16671053 11.65253288 13.81692329 13.28411227 10 16 C7.125 16.8125 7.125 16.8125 5 17 C4.896875 17.61875 4.79375 18.2375 4.6875 18.875 C4 21 4 21 1 23 C-0.65549531 23.38499891 -2.3222433 23.72793135 -4 24 C-4 25.32 -4 26.64 -4 28 C-3.01 28 -2.02 28 -1 28 C0.03789581 26.35666496 1.03567924 24.68756133 2 23 C5.22791555 20.8480563 6.28400809 20.79913557 10 21 C10.04125 20.278125 10.0825 19.55625 10.125 18.8125 C11.3196439 14.97257318 13.6914947 13.07261353 17 11 C18.9959722 10.32136945 20.99568551 9.65358081 23 9 C24.35500919 7.68870078 25.68671343 6.35308313 27 5 C29.21192178 3.26603117 31.32615816 1.89685112 34 1 C37.8125 1.5625 37.8125 1.5625 41 3 C43.18891794 6.28337691 43.45290607 7.19558901 43 11 C41.875 13.8125 41.875 13.8125 40 16 C34.12473556 17.43299133 28.99481925 13.7639316 24 11 C24 11.66 24 12.32 24 13 C26.31 13.66 28.62 14.32 31 15 C29.68 17.31 28.36 19.62 27 22 C26.01 21.34 25.02 20.68 24 20 C21.86196946 20.07606836 21.86196946 20.07606836 20 21 C19.505 22.485 19.505 22.485 19 24 C18.21625 24.28875 17.4325 24.5775 16.625 24.875 C13.29630327 26.30158431 12.73945853 27.89922611 11 31 C4.96589427 36.81860195 -2.94871326 36.23163039 -10.79296875 36.265625 C-13.81940156 36.01495821 -15.52267178 35.70686729 -18 34 C-18.9375 31.75 -18.9375 31.75 -19 29 C-17.5625 25.6875 -17.5625 25.6875 -16 23 C-15.01 23 -14.02 23 -13 23 C-13 21.68 -13 20.36 -13 19 C-12.01 18.67 -11.02 18.34 -10 18 C-9.690625 17.34 -9.38125 16.68 -9.0625 16 C-8 14 -8 14 -5.875 13.25 C-4.946875 13.12625 -4.946875 13.12625 -4 13 C-7.48605314 13 -10.5881679 13.25560027 -14 14 C-15.16666667 15.91666667 -15.16666667 15.91666667 -16 18 C-18.625 19.25 -18.625 19.25 -21 20 C-21.4375 16.875 -21.4375 16.875 -21 13 C-18.97871868 10.55430265 -16.6977203 8.66623901 -14 7 C-13.34 7 -12.68 7 -12 7 C-11.6596875 6.1028125 -11.6596875 6.1028125 -11.3125 5.1875 C-8.64127805 0.73546341 -5.00990402 -0.42942034 0 0 Z " fill="#599BEA" transform="translate(45,21)"/>
<path d="M0 0 C0 3.63 0 7.26 0 11 C-2.64 11.33 -5.28 11.66 -8 12 C-8.33 14.97 -8.66 17.94 -9 21 C-10.32773438 21.04898438 -11.65546875 21.09796875 -13.0234375 21.1484375 C-31.14816682 21.08110714 -31.14816682 21.08110714 -46 30 C-45.54936121 25.15563297 -44.46006039 22.46006039 -41 19 C-38.75 18.1875 -38.75 18.1875 -37 18 C-36.855625 16.865625 -36.71125 15.73125 -36.5625 14.5625 C-36 11 -36 11 -35 10 C-33.14712498 9.92773498 -31.29166122 9.9161878 -29.4375 9.9375 C-28.42558594 9.94652344 -27.41367188 9.95554687 -26.37109375 9.96484375 C-25.19740234 9.98224609 -25.19740234 9.98224609 -24 10 C-24 7.36 -24 4.72 -24 2 C-17.28629037 -1.35685481 -7.30587718 -0.09488152 0 0 Z " fill="#F0F0F9" transform="translate(113,57)"/>
<path d="M0 0 C2.98281934 1.67998767 2.98281934 1.67998767 5.625 1.125 C6.140625 0.898125 6.65625 0.67125 7.1875 0.4375 C5.90687515 2.1449998 4.56982443 3.81123596 3.1875 5.4375 C2.5275 5.4375 1.8675 5.4375 1.1875 5.4375 C1.1875 6.7575 1.1875 8.0775 1.1875 9.4375 C-0.72131434 10.47294174 -2.63989204 11.49040085 -4.5625 12.5 C-5.62984375 13.06847656 -6.6971875 13.63695312 -7.796875 14.22265625 C-10.90943919 15.47655193 -11.78342665 15.5627866 -14.8125 14.4375 C-15.1425 14.7675 -15.4725 15.0975 -15.8125 15.4375 C-20.25762297 15.6939494 -23.90995822 15.73311281 -27.8125 13.4375 C-28.5 11.375 -28.5 11.375 -28.8125 9.4375 C-29.4725 9.1075 -30.1325 8.7775 -30.8125 8.4375 C-29.44266497 5.27634224 -28.8234362 4.4447908 -25.8125 2.4375 C-17.36631025 -0.76784071 -8.63450773 -3.94303102 0 0 Z " fill="#63C2F4" transform="translate(78.8125,11.5625)"/>
<path d="M0 0 C0 1.32 0 2.64 0 4 C0.78375 3.95875 1.5675 3.9175 2.375 3.875 C5 4 5 4 7 6 C9.43252661 6.46162427 9.43252661 6.46162427 12.125 6.625 C13.49011719 6.73714844 13.49011719 6.73714844 14.8828125 6.8515625 C15.58148438 6.90054687 16.28015625 6.94953125 17 7 C16.41925881 9.88555777 16.05668897 10.93799644 14 13.1875 C8.68011633 16.40159639 3.40382133 16.53292317 -2.5625 15.0625 C-3.696875 14.711875 -4.83125 14.36125 -6 14 C-5.34 13.67 -4.68 13.34 -4 13 C-7.48605314 13 -10.5881679 13.25560027 -14 14 C-15.16666667 15.91666667 -15.16666667 15.91666667 -16 18 C-18.625 19.25 -18.625 19.25 -21 20 C-21.4375 16.875 -21.4375 16.875 -21 13 C-18.97871868 10.55430265 -16.6977203 8.66623901 -14 7 C-13.34 7 -12.68 7 -12 7 C-11.6596875 6.1028125 -11.6596875 6.1028125 -11.3125 5.1875 C-8.64127805 0.73546341 -5.00990402 -0.42942034 0 0 Z " fill="#61C5F2" transform="translate(45,21)"/>
<path d="M0 0 C2.80637604 2.01708278 3.06805621 4.17569674 4 7.4375 C4.66 8.4275 5.32 9.4175 6 10.4375 C6.37569856 14.19448557 6.1642235 15.19116476 4 18.4375 C3.60612212 20.76137947 3.26513915 23.09543749 3 25.4375 C2.38125 25.47875 1.7625 25.52 1.125 25.5625 C0.073125 25.995625 0.073125 25.995625 -1 26.4375 C-2.18335395 29.32068775 -2.18335395 29.32068775 -3 32.4375 C-3.66 33.4275 -4.32 34.4175 -5 35.4375 C-5.66 35.4375 -6.32 35.4375 -7 35.4375 C-7.33 37.0875 -7.66 38.7375 -8 40.4375 C-9.65 40.4375 -11.3 40.4375 -13 40.4375 C-13.33 39.4475 -13.66 38.4575 -14 37.4375 C-12 35.4375 -12 35.4375 -9.625 34.6875 C-5.98913355 32.95613502 -4.78525509 31.00801018 -3 27.4375 C-3.12865812 24.15107535 -3.12865812 24.15107535 -4 21.4375 C-4.62648437 21.23253906 -5.25296875 21.02757813 -5.8984375 20.81640625 C-6.71570313 20.54699219 -7.53296875 20.27757813 -8.375 20 C-9.18710938 19.73316406 -9.99921875 19.46632813 -10.8359375 19.19140625 C-13 18.4375 -13 18.4375 -15 17.4375 C-15 16.7775 -15 16.1175 -15 15.4375 C-11.20696275 16.43943437 -8.28463659 17.24774227 -5 19.4375 C-3.0103005 19.82763716 -1.00980131 20.16952649 1 20.4375 C3.22923777 16.11015609 2.92470553 13.15349818 2 8.4375 C-1.56691813 6.84377062 -3.60364584 5.94127497 -7.36328125 7.27734375 C-10.66459494 9.0549742 -13.31288344 10.52021631 -15.5859375 13.5546875 C-17.58725639 16.21942702 -19.87044087 16.43604108 -23 17.4375 C-26.75306872 19.753506 -26.75306872 19.753506 -28.4375 23.5625 C-28.623125 24.18125 -28.80875 24.8 -29 25.4375 C-31.875 26.5625 -31.875 26.5625 -35 27.4375 C-38.0109362 29.4447908 -38.63016497 30.27634224 -40 33.4375 C-41.32 33.1075 -42.64 32.7775 -44 32.4375 C-43.67 30.7875 -43.34 29.1375 -43 27.4375 C-40.36 26.7775 -37.72 26.1175 -35 25.4375 C-34.67 23.7875 -34.34 22.1375 -34 20.4375 C-33.113125 20.19 -32.22625 19.9425 -31.3125 19.6875 C-27.84954704 18.3807253 -25.68212139 16.96635731 -23 14.4375 C-22.67 13.4475 -22.34 12.4575 -22 11.4375 C-22.68707031 11.48390625 -23.37414062 11.5303125 -24.08203125 11.578125 C-24.98308594 11.61421875 -25.88414063 11.6503125 -26.8125 11.6875 C-27.70582031 11.73390625 -28.59914063 11.7803125 -29.51953125 11.828125 C-32 11.4375 -32 11.4375 -33.82421875 9.421875 C-34.21222656 8.76703125 -34.60023437 8.1121875 -35 7.4375 C-34.34 6.4475 -33.68 5.4575 -33 4.4375 C-33 5.7575 -33 7.0775 -33 8.4375 C-27.51628331 9.76688586 -22.45314846 9.85127923 -17 8.4375 C-16.34 8.7675 -15.68 9.0975 -15 9.4375 C-12.81560777 8.43915186 -12.81560777 8.43915186 -10.5 7 C-6.19891008 4.4375 -6.19891008 4.4375 -4 4.4375 C-4 3.1175 -4 1.7975 -4 0.4375 C-2 -0.5625 -2 -0.5625 0 0 Z " fill="#E1EAF9" transform="translate(84,16.5625)"/>
<path d="M0 0 C0.33 0.66 0.66 1.32 1 2 C0.38125 2.2475 -0.2375 2.495 -0.875 2.75 C-3.35068687 4.20628639 -3.95125002 5.37812506 -5 8 C-5.99 8 -6.98 8 -8 8 C-8 9.32 -8 10.64 -8 12 C-8.99 12.33 -9.98 12.66 -11 13 C-12.80266269 16.41557141 -13.218934 19.16865501 -13 23 C-3.57702951 24.39599563 4.14592936 24.88336431 13 21 C13.99 20.67 14.98 20.34 16 20 C16.71727778 18.35448038 17.38325228 16.68577711 18 15 C18.66 14.34 19.32 13.68 20 13 C21.32 13 22.64 13 24 13 C24.33 11.68 24.66 10.36 25 9 C26.32 8.67 27.64 8.34 29 8 C29.66 9.32 30.32 10.64 31 12 C29.9375 13.4375 29.9375 13.4375 28 15 C24.5 15.5 24.5 15.5 21 16 C18.41544715 17.89533875 18.03724494 18.88826517 17 22 C16.01 22.309375 15.02 22.61875 14 22.9375 C13.01 23.288125 12.02 23.63875 11 24 C10.03122943 26.03243548 10.03122943 26.03243548 10 28 C8.1875 28.625 8.1875 28.625 6 29 C5.01 28.34 4.02 27.68 3 27 C0.5559896 26.64626379 0.5559896 26.64626379 -2.0625 26.6875 C-2.94035156 26.67074219 -3.81820312 26.65398438 -4.72265625 26.63671875 C-5.47417969 26.75660156 -6.22570313 26.87648438 -7 27 C-7.66 27.99 -8.32 28.98 -9 30 C-10.65 29.67 -12.3 29.34 -14 29 C-15.66517133 22.63392191 -16.42650927 18.20107925 -14 12 C-14.99 12 -15.98 12 -17 12 C-17 9.36 -17 6.72 -17 4 C-16.67 4 -16.34 4 -16 4 C-16 5.65 -16 7.3 -16 9 C-12.29352212 7.18899249 -12.29352212 7.18899249 -10.125 3.875 C-9.75375 3.25625 -9.3825 2.6375 -9 2 C-5.5 1.3125 -5.5 1.3125 -2 1 C-1.34 0.67 -0.68 0.34 0 0 Z " fill="#DAE4F7" transform="translate(40,32)"/>
<path d="M0 0 C0.66 0.33 1.32 0.66 2 1 C1.67 1.33 1.34 1.66 1 2 C0.63239269 4.32817964 0.29758419 6.6618385 0 9 C1.98 9 3.96 9 6 9 C3 11 3 11 1 11 C1 13.97 1 16.94 1 20 C-0.21816406 20.14695312 -1.43632813 20.29390625 -2.69140625 20.4453125 C-14.70244375 21.82242652 -14.70244375 21.82242652 -24 29 C-23.54936121 24.15563297 -22.46006039 21.46006039 -19 18 C-16.75 17.1875 -16.75 17.1875 -15 17 C-14.855625 15.865625 -14.71125 14.73125 -14.5625 13.5625 C-14 10 -14 10 -13 9 C-11.14712498 8.92773498 -9.29166122 8.9161878 -7.4375 8.9375 C-6.42558594 8.94652344 -5.41367188 8.95554687 -4.37109375 8.96484375 C-3.19740234 8.98224609 -3.19740234 8.98224609 -2 9 C-2 6.36 -2 3.72 -2 1 C-1.34 0.67 -0.68 0.34 0 0 Z " fill="#F3F3FA" transform="translate(91,58)"/>
<path d="M0 0 C6.93359375 -0.09765625 6.93359375 -0.09765625 9 0 C10 1 10 1 10.09765625 3.06640625 C10.08605469 3.89011719 10.07445313 4.71382813 10.0625 5.5625 C10.05347656 6.38878906 10.04445313 7.21507813 10.03515625 8.06640625 C10.02355469 8.70449219 10.01195313 9.34257813 10 10 C7.15326245 11.42336877 4.85384653 11.00758837 1.6796875 10.87890625 C0.42285156 10.83056641 -0.83398438 10.78222656 -2.12890625 10.73242188 C-3.44761719 10.67634766 -4.76632813 10.62027344 -6.125 10.5625 C-7.46482438 10.50927587 -8.80466808 10.45653549 -10.14453125 10.40429688 C-13.42990887 10.27429992 -16.71500678 10.13932314 -20 10 C-20 9.67 -20 9.34 -20 9 C-13.4 9 -6.8 9 0 9 C0 6.03 0 3.06 0 0 Z " fill="#938DE4" transform="translate(104,69)"/>
<path d="M0 0 C1.60488281 0.00483398 1.60488281 0.00483398 3.2421875 0.00976562 C4.35335937 0.01814453 5.46453125 0.02652344 6.609375 0.03515625 C8.29933594 0.04192383 8.29933594 0.04192383 10.0234375 0.04882812 C12.80213717 0.06060228 15.58072909 0.07704785 18.359375 0.09765625 C18.359375 0.42765625 18.359375 0.75765625 18.359375 1.09765625 C17.55306641 1.22293701 16.74675781 1.34821777 15.91601562 1.47729492 C12.22724136 2.06128022 8.54356655 2.6729518 4.859375 3.28515625 C3.5909375 3.48173828 2.3225 3.67832031 1.015625 3.88085938 C-6.40248506 5.13652905 -11.53883629 6.69163164 -17.640625 11.09765625 C-18.300625 11.09765625 -18.960625 11.09765625 -19.640625 11.09765625 C-19.828125 8.22265625 -19.828125 8.22265625 -19.640625 5.09765625 C-18.650625 4.43765625 -17.660625 3.77765625 -16.640625 3.09765625 C-16.310625 4.41765625 -15.980625 5.73765625 -15.640625 7.09765625 C-15.25390625 6.67613281 -14.8671875 6.25460938 -14.46875 5.8203125 C-13.94796875 5.27246094 -13.4271875 4.72460938 -12.890625 4.16015625 C-12.38015625 3.61488281 -11.8696875 3.06960937 -11.34375 2.5078125 C-7.99085228 -0.26832529 -4.20182298 -0.02235012 0 0 Z " fill="#6462DB" transform="translate(83.640625,78.90234375)"/>
<path d="M0 0 C0.33 0.66 0.66 1.32 1 2 C0.38125 2.2475 -0.2375 2.495 -0.875 2.75 C-3.35068687 4.20628639 -3.95125002 5.37812506 -5 8 C-5.99 8 -6.98 8 -8 8 C-8 9.32 -8 10.64 -8 12 C-8.99 12.33 -9.98 12.66 -11 13 C-12.80266269 16.41557141 -13.218934 19.16865501 -13 23 C-12.01 23.33 -11.02 23.66 -10 24 C-11.32 24.33 -12.64 24.66 -14 25 C-16.21474076 19.95531271 -15.85072153 17.14089313 -14 12 C-14.99 12 -15.98 12 -17 12 C-17 9.36 -17 6.72 -17 4 C-16.67 4 -16.34 4 -16 4 C-16 5.65 -16 7.3 -16 9 C-12.29352212 7.18899249 -12.29352212 7.18899249 -10.125 3.875 C-9.75375 3.25625 -9.3825 2.6375 -9 2 C-5.5 1.3125 -5.5 1.3125 -2 1 C-1.34 0.67 -0.68 0.34 0 0 Z " fill="#B5E2F8" transform="translate(40,32)"/>
<path d="M0 0 C1.47906892 -0.02689216 2.95827483 -0.04634621 4.4375 -0.0625 C5.26121094 -0.07410156 6.08492188 -0.08570312 6.93359375 -0.09765625 C9 0 9 0 10 1 C10.04092937 3.33297433 10.04241723 5.66705225 10 8 C6.7 8 3.4 8 0 8 C0 5.36 0 2.72 0 0 Z " fill="#6C89E4" transform="translate(79,69)"/>
<path d="M0 0 C2.97 0 5.94 0 9 0 C9 2.64 9 5.28 9 8 C6.03 8 3.06 8 0 8 C0 5.36 0 2.72 0 0 Z " fill="#5F5ED9" transform="translate(92,69)"/>
<path d="M0 0 C3.3 0 6.6 0 10 0 C10 2.31 10 4.62 10 7 C6.7 7 3.4 7 0 7 C0 4.69 0 2.38 0 0 Z " fill="#746DD9" transform="translate(91,60)"/>
<path d="M0 0 C0.99 0.33 1.98 0.66 3 1 C3 2.65 3 4.3 3 6 C1.515 6.37125 1.515 6.37125 0 6.75 C-5.526645 8.33708135 -10.74847435 10.12271153 -14 15 C-16.625 15.1875 -16.625 15.1875 -19 15 C-18.67 13.68 -18.34 12.36 -18 11 C-16.989375 10.7525 -15.97875 10.505 -14.9375 10.25 C-12.09020145 9.45136748 -9.73047968 8.38155519 -7.1875 6.875 C-4 5 -4 5 -2 5 C-2 3.68 -2 2.36 -2 1 C-1.34 0.67 -0.68 0.34 0 0 Z " fill="#E1EFFA" transform="translate(82,16)"/>
<path d="M0 0 C2.97 0 5.94 0 9 0 C9 2.31 9 4.62 9 7 C6.03 7 3.06 7 0 7 C0 4.69 0 2.38 0 0 Z " fill="#9661E0" transform="translate(116,60)"/>
<path d="M0 0 C2.97 0 5.94 0 9 0 C9 2.31 9 4.62 9 7 C6.03 7 3.06 7 0 7 C0 4.69 0 2.38 0 0 Z " fill="#7980DE" transform="translate(104,60)"/>
<path d="M0 0 C2.97 0 5.94 0 9 0 C9 2.31 9 4.62 9 7 C6.03 7 3.06 7 0 7 C0 4.69 0 2.38 0 0 Z " fill="#A259DE" transform="translate(116,51)"/>
<path d="M0 0 C2.64 0 5.28 0 8 0 C8 2.31 8 4.62 8 7 C5.36 7 2.72 7 0 7 C0 4.69 0 2.38 0 0 Z " fill="#674CD7" transform="translate(105,70)"/>
<path d="M0 0 C0.33 0.66 0.66 1.32 1 2 C0.38125 2.2475 -0.2375 2.495 -0.875 2.75 C-3.35068687 4.20628639 -3.95125002 5.37812506 -5 8 C-5.99 8 -6.98 8 -8 8 C-8 9.32 -8 10.64 -8 12 C-9.32 12.33 -10.64 12.66 -12 13 C-11.32829194 9.1936543 -10.27253436 5.64793184 -9 2 C-7.329375 1.7834375 -7.329375 1.7834375 -5.625 1.5625 C-2.17857953 1.21627965 -2.17857953 1.21627965 0 0 Z " fill="#E3F4FB" transform="translate(40,32)"/>
<path d="M0 0 C0.33 1.32 0.66 2.64 1 4 C6.32900731 5.29188056 11.71694183 5.69057861 17 4 C16.525625 4.433125 16.05125 4.86625 15.5625 5.3125 C13.76313043 7.02309613 13.76313043 7.02309613 13 10 C14.32 10.33 15.64 10.66 17 11 C16.13375 11.2475 15.2675 11.495 14.375 11.75 C10.81697746 13.06778613 8.0773845 14.80186822 5 17 C6.4165021 13.5767866 8.06827149 12.17515341 11 10 C11.33 9.01 11.66 8.02 12 7 C11.31292969 7.04640625 10.62585937 7.0928125 9.91796875 7.140625 C9.01691406 7.17671875 8.11585937 7.2128125 7.1875 7.25 C6.29417969 7.29640625 5.40085937 7.3428125 4.48046875 7.390625 C2 7 2 7 0.11328125 5.171875 C-0.25410156 4.45515625 -0.62148438 3.7384375 -1 3 C-0.67 2.01 -0.34 1.02 0 0 Z " fill="#CBE7F8" transform="translate(50,21)"/>
<path d="M0 0 C-1.875 5.875 -1.875 5.875 -3 7 C-8.73611111 7.27314815 -8.73611111 7.27314815 -11 7 C-11.66 6.34 -12.32 5.68 -13 5 C-9.32049748 1.76203778 -4.94759086 0 0 0 Z " fill="#5953C7" transform="translate(64,66)"/>
<path d="M0 0 C0.33 0.66 0.66 1.32 1 2 C0.01 2.495 0.01 2.495 -1 3 C-1.6496875 4.175625 -1.6496875 4.175625 -2.3125 5.375 C-4.58710277 8.91327097 -7.32770867 10.16385434 -11 12 C-10.57576756 10.53775201 -10.13509755 9.08026588 -9.6875 7.625 C-9.44386719 6.81289062 -9.20023438 6.00078125 -8.94921875 5.1640625 C-8 3 -8 3 -5 1 C-3.34450469 0.61500109 -1.6777567 0.27206865 0 0 Z " fill="#E8E8F6" transform="translate(72,62)"/>
<path d="M0 0 C2.64 0 5.28 0 8 0 C8 1.65 8 3.3 8 5 C5.36 5 2.72 5 0 5 C0 3.35 0 1.7 0 0 Z " fill="#846FE2" transform="translate(116,70)"/>
<path d="M0 0 C-6.75 4 -6.75 4 -9 4 C-9.33 4.99 -9.66 5.98 -10 7 C-12.4375 8.75 -12.4375 8.75 -15 10 C-15.66 9.67 -16.32 9.34 -17 9 C-16.319375 8.38125 -16.319375 8.38125 -15.625 7.75 C-13.90290169 6.10800498 -13.90290169 6.10800498 -13.2109375 4.00390625 C-11.55280256 1.25996036 -10.04734683 1.01577595 -7 0.1875 C-6.113125 -0.06644531 -5.22625 -0.32039063 -4.3125 -0.58203125 C-2 -1 -2 -1 0 0 Z " fill="#DFD9F5" transform="translate(106,43)"/>
<path d="M0 0 C3.3 0.33 6.6 0.66 10 1 C8.02 1.99 8.02 1.99 6 3 C5.01 4.485 5.01 4.485 4 6 C2.35 5.67 0.7 5.34 -1 5 C-0.67 3.35 -0.34 1.7 0 0 Z " fill="#F2F7FC" transform="translate(27,56)"/>
<path d="M0 0 C2 0.25 2 0.25 4 1 C4.33 1.99 4.66 2.98 5 4 C3.75 5.5625 3.75 5.5625 2 7 C-0.1875 6.6875 -0.1875 6.6875 -2 6 C-1.125 1.125 -1.125 1.125 0 0 Z " fill="#F0F3FB" transform="translate(66,40)"/>
<path d="M0 0 C2.125 0.375 2.125 0.375 4 1 C2.47005208 2.20442708 0.94010417 3.40885417 -0.58984375 4.61328125 C-2.27155077 6.05683091 -2.27155077 6.05683091 -3 9 C-6.44847383 11.52003857 -9.86573995 11.15901 -14 11 C-14 10.67 -14 10.34 -14 10 C-12.906875 9.690625 -11.81375 9.38125 -10.6875 9.0625 C-8.44592006 8.41662103 -6.2130649 7.7376883 -4 7 C-3.28272222 5.35448038 -2.61674772 3.68577711 -2 2 C-1.34 1.34 -0.68 0.68 0 0 Z " fill="#CDD9F4" transform="translate(60,45)"/>
<path d="M0 0 C1.65 0.33 3.3 0.66 5 1 C4.67 2.65 4.34 4.3 4 6 C0.30099992 5.11223998 -3.34550461 4.05418136 -7 3 C-7 2.67 -7 2.34 -7 2 C-4.69 2 -2.38 2 0 2 C0 1.34 0 0.68 0 0 Z " fill="#F4F4FC" transform="translate(101,26)"/>
<path d="M0 0 C1.32 0 2.64 0 4 0 C4 1.65 4 3.3 4 5 C1.36 5 -1.28 5 -4 5 C-4 4.34 -4 3.68 -4 3 C-2.68 3 -1.36 3 0 3 C0 2.01 0 1.02 0 0 Z " fill="#6557D5" transform="translate(109,61)"/>
<path d="M0 0 C1.98 0 3.96 0 6 0 C5.67 1.65 5.34 3.3 5 5 C3.35 4.67 1.7 4.34 0 4 C0 2.68 0 1.36 0 0 Z " fill="#F5F0FB" transform="translate(107,38)"/>
<path d="M0 0 C2.97 0 5.94 0 9 0 C7.68 0.33 6.36 0.66 5 1 C3.71563266 2.9837767 3.71563266 2.9837767 3 5 C2.01 5 1.02 5 0 5 C0 3.35 0 1.7 0 0 Z " fill="#6886E3" transform="translate(92,69)"/>
<path d="M0 0 C0.99 0.33 1.98 0.66 3 1 C3 2.65 3 4.3 3 6 C1.35 5.67 -0.3 5.34 -2 5 C-2 3.68 -2 2.36 -2 1 C-1.34 0.67 -0.68 0.34 0 0 Z " fill="#F5FAFC" transform="translate(82,16)"/>
<path d="M0 0 C1.65 0 3.3 0 5 0 C4.67 1.65 4.34 3.3 4 5 C2.68 4.67 1.36 4.34 0 4 C0 2.68 0 1.36 0 0 Z " fill="#F6F9FC" transform="translate(40,45)"/>
<path d="M0 0 C0.625 1.8125 0.625 1.8125 1 4 C0.01 5.485 0.01 5.485 -1 7 C-1.66 7 -2.32 7 -3 7 C-3.33 8.32 -3.66 9.64 -4 11 C-4.56638908 6.18569279 -2.82561627 3.79692186 0 0 Z " fill="#D2D5F4" transform="translate(80,45)"/>
</svg>
